<?xml version="1.0" encoding="utf-8"?>
<!-- Generator: Adobe Illustrator 25.0.1, SVG Export Plug-In . SVG Version: 6.00 Build 0)  -->
<svg version="1.1" id="Capa_1" xmlns="http://www.w3.org/2000/svg" xmlns:xlink="http://www.w3.org/1999/xlink" x="0px" y="0px"
	 viewBox="0 0 97.8 97.8" style="enable-background:new 0 0 97.8 97.8;" xml:space="preserve">
<style type="text/css">
	.st0{fill:#E0CF04;}
	.st1{fill:#1C1C1C;}
</style>
<g>
	<circle class="st0" cx="48.8" cy="48.8" r="48.8"/>
	<g>
		<path class="st1" d="M44.2,46.4c0,0,5.8-0.4,5.8-7.2c0-6.8-4.7-10.1-10.7-10.1h-11h-0.3h-8.4V67h8.4h0.3h11
			c0,0,12.1,0.4,12.1-11.2C51.3,55.8,51.8,46.4,44.2,46.4z M28.2,35.8h9.6h1.4c0,0,2.7,0,2.7,3.9c0,3.9-1.6,4.5-3.4,4.5H28.2V35.8z
			 M38.7,60.3H28.2V50.2h11c0,0,4-0.1,4,5.2C43.2,59.8,40.3,60.3,38.7,60.3z"/>
		<path class="st1" d="M67.4,38.8c-14.6,0-14.6,14.6-14.6,14.6s-1,14.5,14.6,14.5c0,0,13,0.7,13-10.1h-6.7c0,0,0.2,4.1-6.1,4.1
			c0,0-6.7,0.4-6.7-6.6h19.7C80.6,55.2,82.7,38.8,67.4,38.8z M60.8,50.2c0,0,0.8-5.8,6.7-5.8s5.8,5.8,5.8,5.8H60.8z"/>
		<rect x="59.2" y="31.3" class="st1" width="15.7" height="4.7"/>
	</g>
</g>
</svg>
