<svg xmlns="http://www.w3.org/2000/svg" width="40" height="25" viewBox="0 0 40 25">
  <path id="iconmonstr-behance-1" d="M36.666,8.333H25V5H36.666ZM39.543,25c-.737,2.162-3.382,5-8.5,5s-9.273-2.882-9.273-9.458c0-6.517,3.875-9.867,9.11-9.867,5.137,0,8.273,2.97,8.958,7.377a22.315,22.315,0,0,1,.158,3.567H26.616A4.49,4.49,0,0,0,34.263,25Zm-12.81-6.667h8.275c-.175-2.578-1.893-3.7-4.128-3.7C28.436,14.635,27.085,15.915,26.733,18.333ZM10.777,29.98H0V5.035H11.588c9.127.135,9.3,9.073,4.533,11.51C21.89,18.645,22.083,29.98,10.777,29.98ZM5,15h5.973c4.18,0,4.843-5-.52-5H5Zm5.652,5H5v5.027h5.568C15.66,25.026,15.348,20,10.652,20Z" transform="translate(0 -5)" fill="#e0cf04"/>
</svg>
