<?xml version="1.0" encoding="utf-8"?>
<!-- Generator: Adobe Illustrator 25.0.1, SVG Export Plug-In . SVG Version: 6.00 Build 0)  -->
<svg version="1.1" id="Capa_1" xmlns="http://www.w3.org/2000/svg" xmlns:xlink="http://www.w3.org/1999/xlink" x="0px" y="0px"
	 viewBox="0 0 486.1 486.1" style="enable-background:new 0 0 486.1 486.1;" xml:space="preserve">
<style type="text/css">
	.st0{fill:#E0CF04;stroke:#E0CF04;stroke-width:22;stroke-miterlimit:10;}
</style>
<g>
	<path class="st0" d="M404.1,81.9c-43-43-100.3-66.7-161.1-66.7S124.9,38.8,81.9,81.9S15.1,182.1,15.1,243.1s23.7,118.1,66.8,161.1
		s100.3,66.7,161.1,66.7c35.4,0,67.6-6.6,93.2-18.9c24.3-11.7,41.9-28.5,49.7-47.2c9.3-22.4,4-45.8-14.3-64.2l-0.7-0.7
		c0.3-0.4,0.7-0.7,0.9-0.9c13.1-13.8,13.1-31.9-0.2-45.2l-32.5-32.5c-6.4-6.6-14.1-10.1-22.2-10.1s-15.9,3.5-22.5,10l-16.9,16.9
		c-0.8-0.5-1.6-0.8-2.4-1.2c-2.1-1-3.9-2-5.5-3c-17.2-10.9-32.7-25.1-47.6-43.4c-6.6-8.3-11.1-15.3-14.4-22.2c4.2-3.9,8.2-8,12-11.9
		c1.6-1.7,3.3-3.3,5-5c13.8-13.8,13.8-31.6,0-45.4l-16-16c-1.9-1.9-3.7-3.7-5.4-5.5c-3.6-3.7-7.2-7.4-11.2-11.1
		c-6.4-6.3-14-9.6-22-9.6c-8.1,0-15.8,3.3-22.3,9.6c-0.1,0.1-0.1,0.1-0.2,0.2l-20.2,20.2c-8.1,8.1-12.8,18-13.7,29.4
		c-1.4,17.8,3.8,34.3,7.8,45.1c9.7,26.1,24.1,50.3,45.6,76.2c26.1,31.1,57.5,55.8,93.4,73.2c13.8,6.6,32.3,14.3,53.1,15.7
		c1.3,0.1,2.6,0.1,3.9,0.1c14.5,0,26.8-5.3,36.4-15.7c0.1-0.1,0.3-0.3,0.4-0.4c0.3-0.4,0.7-0.8,1-1.1l0.6,0.6
		c12,12,15.3,25.7,9.5,39.7c-10.8,25.6-52.7,51.9-122.1,51.9c-113.3,0-205.4-92.1-205.4-205.4S129.7,37.6,243,37.6
		S448.4,129.7,448.4,243c0,18.7-2.5,37-7.4,54.8c-1.7,6,1.9,12.2,7.9,13.9c6,1.7,12.2-1.9,13.9-7.9c5.4-19.7,8.3-40.1,8.3-60.8
		C470.9,182.1,447.2,125,404.1,81.9z M337,342.5c-5.3,5.7-11.3,8.3-19.7,8.3c-0.8,0-1.7,0-2.5-0.1c-16.9-1.1-32.8-7.8-44.7-13.5
		c-32.9-15.9-61.8-38.5-85.8-67.2c-19.8-23.8-33-45.9-41.8-69.5c-5.3-14.3-7.2-25.1-6.5-35.5c0.6-6.1,2.8-11.1,7.2-15.4l20.2-20.1
		c1.6-1.5,4-3.3,6.7-3.3c2.6,0,4.9,1.7,6.3,3.2c0.1,0.1,0.2,0.2,0.3,0.3c3.6,3.3,6.9,6.8,10.5,10.4c1.9,1.9,3.8,3.8,5.6,5.7l16,16
		c5,5,5,8.6,0,13.6c-1.7,1.7-3.4,3.4-5.1,5.1c-5,5-9.6,9.8-14.6,14.3c-0.2,0.1-0.3,0.3-0.5,0.5c-7,7-4.6,14.3-3.8,16.8
		c0.1,0.3,0.2,0.5,0.3,0.8c4.3,10.4,10.3,20.2,19.5,31.8l0.1,0.1c16.5,20.4,33.9,36.1,53.1,48.3c2.5,1.6,5.1,2.9,7.5,4.1
		c2.1,1,3.9,2,5.5,3c0.3,0.2,0.7,0.4,1,0.6c2.4,1.2,4.9,1.8,7.3,1.8c4.1,0,8-1.7,11.3-5.1l20.2-20.2c1.6-1.6,3.9-3.5,6.6-3.5
		c2.4,0,4.7,1.8,6.1,3.3c0.1,0.1,0.1,0.1,0.2,0.2l32.5,32.5c4.6,4.6,4.6,8.8-0.2,13.8l-0.1,0.1c-2.2,2.3-4.5,4.6-7,7
		C344.7,334.4,340.7,338.2,337,342.5z"/>
</g>
</svg>
