<svg xmlns="http://www.w3.org/2000/svg" width="40.008" height="40" viewBox="0 0 40.008 40"><defs><style>.a{fill:#e0cf04;}</style></defs><g transform="translate(-3.391 -3.44)"><path class="a" d="M34.14,5.91A20,20,0,1,0,5.86,34.19,19.866,19.866,0,0,0,20,40.05,19.106,19.106,0,0,0,28.181,38.4a8.6,8.6,0,0,0,4.362-4.14,4.99,4.99,0,0,0-1.259-5.63l-.058-.058a.775.775,0,0,1,.082-.082,2.7,2.7,0,0,0-.016-3.967l-2.848-2.848a2.708,2.708,0,0,0-1.951-.889,2.779,2.779,0,0,0-1.975.881l-1.481,1.481c-.074-.041-.14-.074-.214-.107a5.175,5.175,0,0,1-.486-.263,17.474,17.474,0,0,1-4.181-3.811,10.46,10.46,0,0,1-1.267-1.951c.37-.346.716-.7,1.053-1.045.14-.148.288-.288.436-.436a2.64,2.64,0,0,0,0-3.984l-1.407-1.407c-.165-.165-.321-.321-.477-.486-.313-.321-.634-.65-.979-.971a2.727,2.727,0,0,0-1.934-.84,2.812,2.812,0,0,0-1.959.84L11.6,8.7l-1.77,1.77a4.042,4.042,0,0,0-1.2,2.584,9.369,9.369,0,0,0,.683,3.959,22.624,22.624,0,0,0,4,6.683,24.607,24.607,0,0,0,8.2,6.42,12.964,12.964,0,0,0,4.658,1.374c.115.008.23.008.346.008a4.172,4.172,0,0,0,3.193-1.374l.033-.033a.986.986,0,0,1,.091-.1l.049.049a3.025,3.025,0,0,1,.831,3.481C29.77,35.77,26.091,38.075,20,38.075A18.014,18.014,0,1,1,37.374,24.857a.99.99,0,1,0,1.909.527A19.977,19.977,0,0,0,34.14,5.91ZM28.247,28.782a2.178,2.178,0,0,1-1.728.724A2.006,2.006,0,0,1,26.3,29.5a11.009,11.009,0,0,1-3.926-1.185,22.636,22.636,0,0,1-7.531-5.9,20.778,20.778,0,0,1-3.671-6.1A7.319,7.319,0,0,1,10.6,13.2a2.063,2.063,0,0,1,.634-1.35L13,10.091a.924.924,0,0,1,.584-.288.8.8,0,0,1,.551.28l.025.025c.313.288.609.593.922.914.165.165.329.337.494.5l1.407,1.407a.708.708,0,0,1,0,1.193l-.444.444c-.436.436-.84.856-1.284,1.251-.016.008-.025.025-.041.041a1.349,1.349,0,0,0-.337,1.473c.008.025.016.041.025.066a11.564,11.564,0,0,0,1.712,2.79l.008.008a19.26,19.26,0,0,0,4.658,4.239c.222.14.444.255.658.362a5.175,5.175,0,0,1,.486.263.9.9,0,0,0,.091.049,1.418,1.418,0,0,0,.642.156,1.355,1.355,0,0,0,.988-.444l1.77-1.77a.884.884,0,0,1,.576-.3.8.8,0,0,1,.535.288l.016.016L29.893,25.9a.747.747,0,0,1-.016,1.21l-.008.008c-.189.206-.4.4-.617.617C28.922,28.058,28.576,28.4,28.247,28.782Z" transform="translate(3.391 3.39)"/></g></svg>